<?xml version="1.0" encoding="UTF-8"?>
<svg id="Layer_1" data-name="Layer 1" xmlns="http://www.w3.org/2000/svg" viewBox="0 0 23.96 32">
  <defs>
    <style>
      .cls-1 {
        fill: #0079b8;
      }
    </style>
  </defs>
  <path class="cls-1" d="m7.45,32c.12-1.91.27-3.84.44-5.72.62-5.76,1.7-17.5,4.92-21.97.18-.24.32-.35.49-.47.02-.01.07-.03.19,0,1.16.38,1.91,2.14,2.42,3.12.69,1.33,1.27,2.71,1.77,4.12,1.01,2.84,1.69,5.78,2.25,8.74.14.77.28,1.54.41,2.31.41,2.45.78,4.9,1.1,7.36.11.83.21,1.67.3,2.5h2.22c-.53-4.69-1.3-9.36-2.16-14.01-.12-.66-.25-1.32-.38-1.98-.5-2.57-1.02-5.15-1.76-7.66-.7-2.36-1.52-4.89-3.17-6.77-2.94-3.14-6.45-1.13-8.28,1.97-2.46,4.06-3.7,8.56-4.93,13-1.34,5.13-2.4,10.25-3.28,15.45h7.45Z"/>
</svg>